<svg width="725" height="725" viewBox="0 0 725 725" fill="none" xmlns="http://www.w3.org/2000/svg">
<ellipse cx="43.4129" cy="43.4129" rx="43.4129" ry="43.4129" transform="matrix(0.999992 -0.00400939 0.00540832 0.999985 319.111 284.273)" fill="#17468E"/>
<rect width="22.6397" height="62.0975" rx="11.3199" transform="matrix(0.999992 -0.00400941 -0.00540828 -0.999985 563.189 418.634)" fill="#3982C6"/>
<rect width="22.4448" height="38.3923" rx="11.2224" transform="matrix(0.999992 -0.00400941 -0.00540828 -0.999985 603.586 425.56)" fill="#3982C6"/>
<rect width="22.6397" height="62.0975" rx="11.3199" transform="matrix(-0.999992 0.00400941 0.00540828 0.999985 165.265 306.744)" fill="#BEC8D5"/>
<rect width="22.4448" height="38.3923" rx="11.2224" transform="matrix(-0.999992 0.00400941 0.00540828 0.999985 124.868 299.818)" fill="#BEC8D5"/>
<path d="M363.229 466.277C288.873 466.631 251.707 420.009 218.915 378.87C188.629 340.873 164.703 310.862 115.624 311.079C112.181 311.129 108.762 310.496 105.565 309.216C102.367 307.937 99.4556 306.036 96.9974 303.625C94.5392 301.213 92.5834 298.338 91.243 295.166C89.9026 291.994 89.2042 288.587 89.1881 285.144C89.172 281.7 89.8387 278.287 91.1494 275.102C92.4602 271.917 94.389 269.024 96.8246 266.589C99.2602 264.154 102.154 262.226 105.339 260.916C108.524 259.606 111.937 258.94 115.381 258.957C189.727 258.604 226.898 305.231 259.69 346.37C289.982 384.362 313.902 414.378 362.986 414.166C412.07 413.953 435.735 383.685 465.645 345.391C498.047 303.937 534.807 256.942 609.132 256.61C616.001 256.644 622.578 259.388 627.434 264.245C632.289 269.102 635.031 275.68 635.064 282.548C635.096 289.417 632.415 296.02 627.605 300.924C622.794 305.827 616.243 308.633 609.375 308.732C560.281 308.966 536.626 339.213 506.716 377.507C474.32 418.946 437.58 465.919 363.229 466.277Z" fill="#DCE2E9"/>
<g style="mix-blend-mode:screen">
<path d="M115.419 269.397C189.771 269.038 226.936 315.66 259.728 356.799C290.02 394.801 313.945 424.812 363.024 424.595C412.103 424.377 435.768 394.108 465.683 355.82C498.085 314.376 534.814 267.392 609.17 267.039C615.177 267.012 621.008 269.06 625.678 272.838C630.348 276.615 633.569 281.89 634.798 287.77C635.143 286.054 635.313 284.308 635.304 282.558C635.27 275.647 632.492 269.033 627.583 264.169C622.673 259.305 616.033 256.59 609.122 256.621C534.776 256.974 498.036 303.947 465.634 345.402C435.704 383.685 412.049 413.922 362.975 414.177C313.902 414.431 289.95 384.383 259.68 346.381C226.887 305.242 189.696 258.594 115.371 258.968C111.51 258.992 107.703 259.872 104.225 261.546C100.746 263.22 97.6823 265.646 95.255 268.648C92.8277 271.65 91.0975 275.153 90.1891 278.905C89.2806 282.657 89.2168 286.564 90.0022 290.344C91.1725 284.456 94.3425 279.155 98.9749 275.337C103.607 271.519 109.417 269.421 115.419 269.397Z" fill="#DCE2E9"/>
</g>
<g style="mix-blend-mode:multiply">
<path d="M609.342 298.309C560.253 298.547 536.598 328.795 506.684 367.083C474.281 408.527 437.547 455.505 363.191 455.859C288.835 456.212 251.675 409.585 218.882 368.446C188.585 330.449 164.67 300.438 115.592 300.656C109.584 300.692 103.75 298.648 99.0784 294.871C94.4071 291.094 91.1868 285.817 89.9642 279.936C89.6188 281.651 89.449 283.397 89.4576 285.147C89.4902 292.059 92.2669 298.675 97.177 303.539C102.087 308.403 108.728 311.117 115.64 311.085C164.735 310.851 188.671 340.873 218.931 378.875C251.723 420.014 288.888 466.636 363.245 466.282C437.601 465.929 474.33 418.956 506.732 377.512C536.668 339.224 560.313 308.986 609.391 308.737C616.303 308.704 622.919 305.927 627.783 301.016C632.648 296.106 635.363 289.464 635.331 282.552C635.319 280.801 635.135 279.055 634.781 277.34C633.606 283.231 630.433 288.536 625.797 292.357C621.162 296.178 615.349 298.28 609.342 298.309Z" fill="#DCE2E9"/>
</g>
<path d="M610.125 465.098C535.774 465.447 498.609 418.835 465.811 377.691C435.52 339.689 411.594 309.678 362.521 309.901C313.447 310.123 289.766 340.377 259.862 378.676C227.46 420.119 190.72 467.092 116.375 467.446C112.931 467.496 109.512 466.862 106.315 465.583C103.118 464.303 100.206 462.403 97.7475 459.991C95.2893 457.579 93.3335 454.704 91.9931 451.532C90.6527 448.36 89.9542 444.954 89.9382 441.51C89.9221 438.066 90.5887 434.653 91.8995 431.468C93.2103 428.284 95.1392 425.39 97.5748 422.955C100.01 420.52 102.904 418.592 106.089 417.282C109.275 415.972 112.688 415.307 116.131 415.324C165.221 415.096 188.881 384.842 218.785 346.554C251.192 305.116 287.921 258.132 362.272 257.773C436.623 257.415 473.799 304.047 506.592 345.186C536.878 383.183 560.798 413.199 609.888 412.982C613.309 412.965 616.701 413.623 619.868 414.918C623.035 416.212 625.917 418.118 628.347 420.526C630.778 422.934 632.711 425.797 634.035 428.952C635.359 432.107 636.049 435.492 636.065 438.914C636.081 442.335 635.423 445.727 634.128 448.894C632.833 452.061 630.927 454.943 628.519 457.374C626.111 459.805 623.248 461.738 620.092 463.062C616.937 464.387 613.547 465.082 610.125 465.098Z" fill="#2864AA"/>
<g style="mix-blend-mode:screen" opacity="0.5">
<path d="M116.148 425.752C165.238 425.514 188.898 395.271 218.807 356.977C251.209 315.534 287.97 268.529 362.289 268.202C436.609 267.875 473.816 314.475 506.609 355.614C536.89 393.606 560.815 423.617 609.899 423.405C615.906 423.378 621.737 425.426 626.408 429.202C631.078 432.978 634.301 438.252 635.532 444.13C635.868 442.412 636.036 440.665 636.033 438.914C635.999 432.004 633.223 425.39 628.314 420.528C623.405 415.665 616.766 412.951 609.856 412.982C560.756 413.21 536.831 383.188 506.56 345.186C473.768 304.047 436.576 257.399 362.241 257.773C287.905 258.148 251.161 305.116 218.754 346.554C188.818 384.843 165.173 415.08 116.1 415.324C112.236 415.338 108.425 416.213 104.941 417.885C101.458 419.557 98.3905 421.983 95.9618 424.988C93.5331 427.993 91.804 431.501 90.9002 435.257C89.9964 439.014 89.9405 442.924 90.7366 446.705C91.9057 440.817 95.0745 435.515 99.7058 431.696C104.337 427.878 110.146 425.778 116.148 425.752Z" fill="#2864AA"/>
</g>
<g style="mix-blend-mode:multiply" opacity="0.5">
<path d="M610.077 454.68C535.721 455.023 498.555 408.401 465.768 367.268C435.482 329.271 411.551 299.254 362.472 299.472C313.394 299.689 289.728 329.958 259.813 368.247C227.406 409.696 190.677 456.669 116.326 457.028C110.32 457.053 104.489 455.005 99.8193 451.229C95.1491 447.453 91.9256 442.181 90.6935 436.302C89.9414 440.09 90.0404 443.997 90.9834 447.741C91.9264 451.485 93.6898 454.972 96.146 457.951C98.6022 460.93 101.69 463.326 105.186 464.965C108.681 466.605 112.498 467.447 116.359 467.43C190.705 467.077 227.444 420.104 259.846 378.66C289.777 340.366 313.427 310.134 362.505 309.885C411.584 309.636 435.536 339.673 465.796 377.675C498.593 418.82 535.759 465.431 610.11 465.083C613.97 465.059 617.777 464.179 621.256 462.505C624.735 460.831 627.798 458.405 630.225 455.403C632.653 452.401 634.383 448.898 635.292 445.146C636.2 441.394 636.264 437.487 635.478 433.707C634.302 439.591 631.134 444.89 626.507 448.71C621.88 452.53 616.077 454.639 610.077 454.68Z" fill="#2864AA"/>
</g>
</svg>
