<svg width="2663" height="2663" viewBox="0 0 2663 2663" fill="none" xmlns="http://www.w3.org/2000/svg">
<circle cx="1332.34" cy="1204.21" r="159.62" fill="#17468E"/>
<rect width="83.2414" height="228.319" rx="20" transform="matrix(1 0 0 -1 2067.46 1542.2)" fill="#3982C6"/>
<rect width="82.5245" height="141.16" rx="20" transform="matrix(1 0 0 -1 2215.85 1568.26)" fill="#3982C6"/>
<rect width="83.2414" height="228.319" rx="20" transform="matrix(-1 0 0 1 606.621 1124.94)" fill="#BEC8D5"/>
<rect width="82.5245" height="141.16" rx="20" transform="matrix(-1 0 0 1 458.228 1098.88)" fill="#BEC8D5"/>
<path d="M1331.31 1714.42C1057.91 1714.63 922.194 1542.66 802.443 1390.92C691.843 1250.77 604.472 1140.07 424.019 1140.15C411.357 1140.28 398.798 1137.9 387.069 1133.15C375.339 1128.4 364.671 1121.37 355.68 1112.46C346.69 1103.56 339.556 1092.96 334.691 1081.28C329.826 1069.6 327.326 1057.06 327.335 1044.4C327.345 1031.74 329.863 1019.2 334.746 1007.51C339.629 995.817 346.778 985.207 355.782 976.29C364.785 967.374 375.464 960.327 387.201 955.558C398.938 950.789 411.5 948.391 424.161 948.504C697.519 948.301 833.258 1120.29 953.009 1272.03C1063.63 1412.16 1150.98 1522.88 1331.45 1522.82C1511.93 1522.76 1599.54 1411.82 1710.27 1271.46C1830.23 1119.52 1966.32 947.279 2239.6 947.153C2264.85 947.379 2288.98 957.564 2306.74 975.494C2324.49 993.425 2334.44 1017.65 2334.43 1042.9C2334.41 1068.16 2324.42 1092.4 2306.64 1110.36C2288.85 1128.31 2264.71 1138.53 2239.46 1138.8C2058.95 1138.93 1971.37 1249.8 1860.64 1390.15C1740.7 1542.03 1604.69 1714.2 1331.31 1714.42Z" fill="#DCE2E9"/>
<g style="mix-blend-mode:screen">
<path d="M424.094 986.888C697.47 986.665 833.19 1158.63 952.941 1310.37C1063.56 1450.54 1150.93 1561.24 1331.38 1561.16C1511.84 1561.09 1599.45 1450.14 1710.2 1309.81C1830.16 1157.91 1966.14 985.701 2239.53 985.497C2261.62 985.486 2283.02 993.103 2300.11 1007.06C2317.21 1021.02 2328.95 1040.46 2333.34 1062.1C2334.65 1055.79 2335.31 1049.38 2335.31 1042.94C2335.32 1017.53 2325.24 993.171 2307.29 975.216C2289.33 957.261 2264.97 947.181 2239.56 947.192C1966.2 947.395 1830.19 1119.56 1710.23 1271.5C1599.42 1411.82 1511.85 1522.65 1331.41 1522.86C1150.98 1523.07 1063.51 1412.24 952.97 1272.07C833.218 1120.32 697.402 948.263 424.122 948.543C409.928 948.573 395.914 951.754 383.09 957.857C370.266 963.961 358.954 972.834 349.97 983.836C340.985 994.838 334.554 1007.69 331.139 1021.48C327.725 1035.26 327.412 1049.62 330.225 1063.53C334.645 1041.9 346.406 1022.45 363.513 1008.49C380.621 994.517 402.024 986.887 424.094 986.888Z" fill="#DCE2E9"/>
</g>
<g style="mix-blend-mode:multiply">
<path d="M2239.54 1100.47C2059.05 1100.63 1971.48 1211.49 1860.73 1351.83C1740.77 1503.73 1604.77 1675.91 1331.38 1676.12C1057.98 1676.32 922.28 1504.34 802.529 1352.6C691.891 1212.44 604.559 1101.75 424.105 1101.82C402.017 1101.87 380.606 1094.27 363.506 1080.31C346.405 1066.36 334.67 1046.91 330.292 1025.26C328.988 1031.57 328.329 1037.98 328.326 1044.42C328.308 1069.83 338.386 1094.19 356.342 1112.15C374.298 1130.11 398.663 1140.19 424.076 1140.17C604.588 1140.03 691.998 1250.77 802.5 1390.94C922.252 1542.68 1057.97 1714.65 1331.37 1714.44C1604.76 1714.24 1740.74 1542.07 1860.7 1390.17C1971.52 1249.83 2059.06 1139.01 2239.51 1138.82C2264.93 1138.8 2289.31 1128.68 2307.29 1110.7C2325.27 1092.72 2335.39 1068.34 2335.41 1042.92C2335.4 1036.48 2334.76 1030.06 2333.49 1023.75C2329.05 1045.39 2317.28 1064.85 2300.16 1078.83C2283.04 1092.81 2261.63 1100.46 2239.54 1100.47Z" fill="#DCE2E9"/>
</g>
<path d="M2239.11 1713.73C1965.73 1713.91 1830.01 1541.99 1710.24 1390.23C1599.62 1250.06 1512.25 1139.36 1331.81 1139.45C1151.38 1139.55 1063.71 1250.43 952.997 1390.81C833.039 1542.71 697.025 1714.88 423.667 1715.08C411.005 1715.21 398.447 1712.83 386.717 1708.08C374.987 1703.33 364.319 1696.3 355.329 1687.4C346.339 1678.49 339.205 1667.89 334.339 1656.21C329.474 1644.53 326.974 1631.99 326.983 1619.33C326.993 1606.67 329.512 1594.13 334.394 1582.44C339.277 1570.75 346.427 1560.14 355.43 1551.22C364.434 1542.31 375.112 1535.26 386.849 1530.49C398.586 1525.72 411.148 1523.32 423.81 1523.44C604.302 1523.32 691.896 1412.44 802.607 1272.1C922.585 1120.22 1058.56 948.014 1331.94 947.791C1605.31 947.568 1741.07 1119.57 1860.82 1271.31C1971.42 1411.47 2058.77 1522.18 2239.27 1522.1C2251.85 1522.1 2264.3 1524.56 2275.92 1529.37C2287.54 1534.18 2298.1 1541.22 2306.99 1550.11C2315.88 1559 2322.93 1569.56 2327.73 1581.18C2332.54 1592.8 2335.01 1605.26 2335 1617.84C2334.99 1630.42 2332.5 1642.88 2327.68 1654.5C2322.86 1666.13 2315.79 1676.7 2306.89 1685.6C2297.99 1694.5 2287.42 1701.57 2275.79 1706.39C2264.16 1711.21 2251.69 1713.72 2239.11 1713.73Z" fill="#2864AA"/>
<g style="mix-blend-mode:screen" opacity="0.5">
<path d="M423.665 1561.78C604.158 1561.63 691.751 1450.78 802.482 1310.43C922.44 1158.52 1058.53 986.241 1331.79 986.135C1605.05 986.028 1740.93 1157.92 1860.68 1309.66C1971.26 1449.79 2058.63 1560.49 2239.1 1560.43C2261.19 1560.42 2282.59 1568.03 2299.68 1581.99C2316.78 1595.94 2328.53 1615.38 2332.94 1637.01C2334.21 1630.7 2334.86 1624.27 2334.88 1617.84C2334.89 1592.43 2324.82 1568.07 2306.87 1550.12C2288.91 1532.17 2264.56 1522.09 2239.15 1522.1C2058.62 1522.22 1971.25 1411.48 1860.71 1271.31C1740.96 1119.57 1605.14 947.51 1331.82 947.79C1058.5 948.071 922.469 1120.22 802.492 1272.1C691.664 1412.44 604.128 1523.26 423.694 1523.44C409.488 1523.43 395.456 1526.59 382.615 1532.69C369.775 1538.78 358.449 1547.66 349.459 1558.67C340.47 1569.69 334.043 1582.56 330.645 1596.36C327.247 1610.15 326.964 1624.53 329.816 1638.44C334.231 1616.81 345.987 1597.36 363.092 1583.39C380.196 1569.42 401.596 1561.79 423.665 1561.78Z" fill="#2864AA"/>
</g>
<g style="mix-blend-mode:multiply" opacity="0.5">
<path d="M2239.13 1675.42C1965.74 1675.59 1830.02 1503.62 1710.29 1351.9C1599.69 1211.75 1512.3 1101.03 1331.84 1101.11C1151.39 1101.19 1063.78 1212.13 953.026 1352.46C833.049 1504.39 697.073 1676.55 423.696 1676.78C401.613 1676.78 380.216 1669.17 363.12 1655.21C346.024 1641.26 334.277 1621.83 329.864 1600.2C327.023 1614.11 327.31 1628.48 330.702 1642.26C334.095 1656.04 340.509 1668.89 349.481 1679.87C358.453 1690.86 369.757 1699.72 382.578 1705.8C395.398 1711.88 409.413 1715.03 423.61 1715.02C696.967 1714.82 832.982 1542.65 952.94 1390.75C1063.75 1250.4 1151.3 1139.59 1331.76 1139.4C1512.21 1139.2 1599.68 1250 1710.18 1390.17C1829.95 1541.93 1965.67 1713.86 2239.05 1713.67C2253.24 1713.64 2267.26 1710.46 2280.08 1704.36C2292.9 1698.25 2304.22 1689.38 2313.2 1678.38C2322.18 1667.38 2328.62 1654.52 2332.03 1640.74C2335.45 1626.96 2335.76 1612.59 2332.95 1598.68C2328.5 1620.3 2316.75 1639.74 2299.66 1653.71C2282.57 1667.69 2261.2 1675.36 2239.13 1675.42Z" fill="#2864AA"/>
</g>
</svg>
