<svg width="2426" height="2426" viewBox="0 0 2426 2426" fill="none" xmlns="http://www.w3.org/2000/svg">
<g id="Logo">
<circle id="eye" cx="1213.32" cy="1097.13" r="145.429" transform="rotate(-0.269799 1213.32 1097.13)" fill="#17468E"/>
<g id="top_strand_bonds">
<path d="M1884.43 1381.92C1884.49 1392.96 1893.48 1401.88 1904.53 1401.82L1940.37 1401.66C1951.41 1401.6 1960.33 1392.61 1960.27 1381.56L1959.48 1213.54C1959.43 1202.5 1950.44 1193.58 1939.39 1193.64L1903.55 1193.81C1892.5 1193.86 1883.59 1202.85 1883.64 1213.9L1884.43 1381.92Z" fill="#3982C6"/>
<path d="M2019.75 1405.02C2019.8 1416.07 2028.79 1424.98 2039.84 1424.93L2075.03 1424.76C2086.07 1424.71 2094.98 1415.72 2094.93 1404.67L2094.51 1316.06C2094.46 1305.02 2085.47 1296.1 2074.42 1296.16L2039.23 1296.32C2028.19 1296.37 2019.28 1305.37 2019.33 1316.42L2019.75 1405.02Z" fill="#3982C6"/>
</g>
<g id="bottom_strand_bonds">
<path d="M551.888 1048.03C551.836 1036.98 542.84 1028.07 531.794 1028.12L495.954 1028.29C484.909 1028.34 475.996 1037.34 476.048 1048.38L476.84 1216.4C476.892 1227.45 485.888 1236.36 496.934 1236.31L532.774 1236.14C543.82 1236.09 552.732 1227.09 552.68 1216.05L551.888 1048.03Z" fill="#BEC8D5"/>
<path d="M416.579 1024.92C416.527 1013.88 407.53 1004.96 396.485 1005.02L361.297 1005.18C350.252 1005.23 341.34 1014.23 341.392 1025.28L341.809 1113.88C341.861 1124.93 350.857 1133.84 361.903 1133.79L397.09 1133.62C408.136 1133.57 417.048 1124.58 416.996 1113.53L416.579 1024.92Z" fill="#BEC8D5"/>
</g>
<g id="bottom_strand">
<path id="Path 21" d="M1214.58 1561.99C965.49 1563.35 841.1 1407.26 731.346 1269.52C629.979 1142.3 549.902 1041.82 385.494 1042.67C373.958 1042.84 362.506 1040.73 351.799 1036.45C341.092 1032.17 331.342 1025.81 323.113 1017.74C314.884 1009.67 308.339 1000.04 303.856 989.416C299.373 978.792 297.042 967.383 296.996 955.846C296.95 944.31 299.191 932.875 303.59 922.204C307.988 911.532 314.456 901.834 322.621 893.672C330.785 885.509 340.485 879.044 351.157 874.648C361.83 870.253 373.265 868.014 384.801 868.063C633.852 866.705 758.26 1022.81 868.014 1160.55C969.398 1287.75 1049.46 1388.25 1213.88 1387.42C1378.31 1386.59 1457.66 1285.14 1557.94 1156.79C1666.58 1017.84 1789.83 860.33 2038.81 859.043C2061.82 859.141 2083.85 868.317 2100.1 884.577C2116.36 900.836 2125.53 922.865 2125.62 945.874C2125.71 968.882 2116.72 991.01 2100.59 1007.45C2084.46 1023.88 2062.51 1033.3 2039.51 1033.65C1875.05 1034.54 1795.73 1135.93 1695.45 1264.28C1586.83 1403.17 1463.64 1560.61 1214.58 1561.99Z" fill="#DCE2E9"/>
<g id="Path 22" style="mix-blend-mode:screen">
<path d="M384.905 903.034C633.973 901.658 758.363 1057.75 868.118 1195.49C969.502 1322.72 1049.58 1423.2 1213.99 1422.35C1378.4 1421.51 1457.74 1320.06 1558.04 1191.72C1666.68 1052.81 1789.83 895.337 2038.92 893.978C2059.04 893.873 2078.57 900.722 2094.2 913.365C2109.84 926.009 2120.62 943.671 2124.72 963.364C2125.88 957.617 2126.45 951.767 2126.43 945.905C2126.33 922.753 2117.04 900.602 2100.6 884.321C2084.17 868.039 2061.93 858.96 2038.78 859.079C1789.73 860.437 1666.55 1017.88 1557.91 1156.82C1457.55 1285.14 1378.24 1386.49 1213.85 1387.46C1049.46 1388.42 969.293 1287.82 867.979 1160.59C758.224 1022.85 633.746 866.671 384.766 868.099C371.834 868.186 359.08 871.145 347.422 876.761C335.765 882.376 325.496 890.509 317.358 900.571C309.22 910.634 303.416 922.374 300.364 934.945C297.312 947.517 297.089 960.605 299.711 973.264C303.645 953.539 314.277 935.771 329.804 922.971C345.33 910.172 364.797 903.128 384.905 903.034Z" fill="#DCE2E9"/>
</g>
<g id="Path 23" style="mix-blend-mode:multiply">
<path d="M2039.42 998.729C1874.98 999.644 1795.66 1101.03 1695.36 1229.36C1586.72 1368.27 1463.56 1525.73 1214.47 1527.09C965.387 1528.45 841.015 1372.34 731.26 1234.6C629.858 1107.38 549.816 1006.91 385.408 1007.75C365.284 1007.88 345.744 1001.05 330.104 988.41C314.465 975.769 303.69 958.099 299.608 938.399C298.447 944.146 297.874 949.997 297.898 955.858C297.991 979.012 307.278 1001.17 323.714 1017.45C340.151 1033.73 362.393 1042.81 385.546 1042.68C550.007 1041.79 630.12 1142.3 731.398 1269.54C841.153 1407.27 965.543 1563.36 1214.63 1562.01C1463.72 1560.65 1586.86 1403.21 1695.5 1264.3C1795.87 1135.96 1875.15 1034.61 2039.56 1033.66C2062.71 1033.54 2084.88 1024.22 2101.19 1007.76C2117.49 991.295 2126.6 969.04 2126.51 945.886C2126.48 940.02 2125.87 934.172 2124.68 928.428C2120.74 948.165 2110.09 965.943 2094.56 978.753C2079.02 991.563 2059.54 998.62 2039.42 998.729Z" fill="#DCE2E9"/>
</g>
</g>
<g id="top_strand">
<path id="Path 24" d="M2041.65 1557.46C1792.58 1558.8 1668.19 1402.75 1558.42 1264.99C1457.04 1137.76 1376.96 1037.28 1212.57 1038.14C1048.18 1039 968.778 1140.4 868.513 1268.77C759.872 1407.68 636.691 1565.12 387.64 1566.48C376.104 1566.66 364.652 1564.54 353.945 1560.26C343.238 1555.99 333.488 1549.63 325.259 1541.55C317.03 1533.48 310.485 1523.85 306.002 1513.23C301.519 1502.61 299.187 1491.2 299.142 1479.66C299.096 1468.12 301.337 1456.69 305.736 1446.02C310.134 1435.35 316.602 1425.65 324.767 1417.49C332.932 1409.32 342.631 1402.86 353.304 1398.46C363.976 1394.07 375.411 1391.83 386.948 1391.88C551.391 1391 630.721 1289.6 730.986 1161.26C839.644 1022.37 962.791 864.894 1211.86 863.518C1460.93 862.143 1585.35 1018.27 1695.11 1156.01C1796.47 1283.22 1876.53 1383.72 2040.98 1382.87C2052.44 1382.81 2063.8 1385.01 2074.41 1389.34C2085.01 1393.67 2094.66 1400.04 2102.8 1408.1C2110.93 1416.16 2117.4 1425.75 2121.83 1436.32C2126.26 1446.88 2128.56 1458.22 2128.61 1469.68C2128.65 1481.15 2126.44 1492.51 2122.1 1503.12C2117.75 1513.74 2111.36 1523.39 2103.29 1531.54C2095.21 1539.69 2085.62 1546.17 2075.05 1550.62C2064.47 1555.06 2053.11 1557.4 2041.65 1557.46Z" fill="#2864AA"/>
<g id="Path 25" style="mix-blend-mode:screen" opacity="0.5">
<path d="M386.98 1426.81C551.424 1425.9 630.753 1324.53 731.036 1196.18C839.677 1057.27 962.929 899.724 1211.89 898.454C1460.86 897.184 1585.39 1053.21 1695.14 1190.94C1796.49 1318.14 1876.57 1418.62 2040.99 1417.79C2061.11 1417.69 2080.64 1424.53 2096.28 1437.17C2111.92 1449.81 2122.7 1467.47 2126.81 1487.16C2127.94 1481.4 2128.51 1475.55 2128.5 1469.68C2128.4 1446.54 2119.12 1424.39 2102.69 1408.11C2086.25 1391.83 2064.02 1382.75 2040.87 1382.88C1876.39 1383.75 1796.32 1283.24 1695 1156.01C1585.25 1018.27 1460.77 862.091 1211.75 863.519C962.738 864.947 839.539 1022.37 730.881 1161.26C630.51 1289.6 551.232 1390.95 386.842 1391.88C373.9 1391.94 361.128 1394.88 349.456 1400.48C337.783 1406.09 327.502 1414.23 319.359 1424.3C311.216 1434.37 305.416 1446.13 302.379 1458.71C299.343 1471.3 299.147 1484.4 301.804 1497.06C305.735 1477.34 316.362 1459.57 331.885 1446.76C347.409 1433.96 366.873 1426.91 386.98 1426.81Z" fill="#2864AA"/>
</g>
<g id="Path 26" style="mix-blend-mode:multiply" opacity="0.5">
<path d="M2041.51 1522.56C1792.43 1523.88 1668.04 1367.79 1558.3 1230.07C1456.93 1102.86 1376.84 1002.36 1212.43 1003.2C1048.02 1004.05 968.676 1105.5 868.375 1233.84C759.717 1372.76 636.57 1530.21 387.502 1531.58C367.382 1531.68 347.855 1524.83 332.219 1512.2C316.584 1499.56 305.798 1481.9 301.684 1462.21C299.156 1474.9 299.478 1487.99 302.629 1500.53C305.779 1513.07 311.678 1524.75 319.899 1534.72C328.12 1544.7 338.457 1552.72 350.164 1558.2C361.87 1563.68 374.653 1566.49 387.587 1566.43C636.638 1565.07 759.82 1407.63 868.461 1268.72C968.814 1140.37 1048.11 1039.04 1212.52 1038.09C1376.92 1037.14 1457.09 1137.7 1558.37 1264.94C1668.14 1402.69 1792.53 1558.75 2041.6 1557.41C2054.53 1557.32 2067.29 1554.36 2078.94 1548.75C2090.6 1543.13 2100.87 1535 2109.01 1524.94C2117.15 1514.87 2122.95 1503.13 2126 1490.56C2129.05 1477.99 2129.28 1464.9 2126.66 1452.24C2122.7 1471.96 2112.07 1489.71 2096.57 1502.52C2081.06 1515.33 2061.61 1522.41 2041.51 1522.56Z" fill="#2864AA"/>
</g>
</g>
</g>
</svg>
